<?xml version="1.0" encoding="UTF-8"?>
<!DOCTYPE svg PUBLIC "-//W3C//DTD SVG 1.1//EN" "http://www.w3.org/Graphics/SVG/1.1/DTD/svg11.dtd">
<!-- Creator: CorelDRAW X6 -->
<svg xmlns="http://www.w3.org/2000/svg" xml:space="preserve" width="3.27778in" height="3.27778in" version="1.1" style="shape-rendering:geometricPrecision; text-rendering:geometricPrecision; image-rendering:optimizeQuality; fill-rule:evenodd; clip-rule:evenodd"
viewBox="0 0 3278 3278"
 xmlns:xlink="http://www.w3.org/1999/xlink">
 <defs>
  <style type="text/css">
   <![CDATA[
    .fil1 {fill:#282828;fill-rule:nonzero}
    .fil0 {fill:#373435;fill-rule:nonzero}
   ]]>
  </style>
 </defs>
 <g id="Layer_x0020_1">
  <metadata id="CorelCorpID_0Corel-Layer"/>
  <path class="fil0" d="M1642 35c-883,0 -1601,718 -1601,1601 0,883 718,1601 1601,1601 883,0 1601,-718 1601,-1601 0,-883 -718,-1601 -1601,-1601zm0 3243c-906,0 -1642,-737 -1642,-1642 0,-906 737,-1642 1642,-1642 906,0 1642,737 1642,1642 0,905 -737,1642 -1642,1642z"/>
  <polygon class="fil1" points="866,656 855,665 750,603 796,716 786,725 667,655 676,647 783,710 736,596 745,587 852,650 805,536 814,528 "/>
  <path class="fil1" d="M961 530l51 -30 -61 -46 10 76zm103 -4l-11 6 -33 -25 -58 34 6 41 -10 6 -19 -140 12 -7 113 85z"/>
  <polygon class="fil1" points="1232,454 1149,487 1101,365 1112,361 1156,472 1228,444 "/>
  <polygon class="fil1" points="1408,407 1321,427 1291,300 1303,298 1330,414 1405,397 "/>
  <path class="fil1" d="M1621 320c-1,33 23,56 54,57 31,1 55,-21 56,-54 1,-33 -23,-56 -53,-57 -31,-1 -55,21 -56,54zm122 3c-1,39 -30,66 -68,65 -38,-1 -66,-29 -65,-68 1,-39 30,-66 68,-65 38,1 66,29 65,68z"/>
  <polygon class="fil1" points="1936,358 1863,344 1852,403 1841,401 1866,273 1952,290 1950,301 1875,286 1865,334 1938,348 "/>
  <path class="fil1" d="M2171 449l53 25 4 -76 -57 51zm62 83l-11 -5 2 -41 -61 -29 -31 28 -11 -5 105 -94 13 6 -6 141z"/>
  <path class="fil1" d="M2390 488l-29 42 32 22c18,12 33,11 42,-3 9,-14 5,-28 -13,-40l-32 -22zm38 13c24,16 30,36 17,55 -13,19 -35,20 -58,4l-4 -3 8 76 -12 -8 -7 -75 -16 -11 -33 48 -9 -6 74 -107 41 28z"/>
  <polygon class="fil1" points="2615,671 2581,639 2499,727 2491,719 2573,632 2539,600 2546,592 2623,664 "/>
  <path class="fil1" d="M498 2201l-10 -6c9,-14 10,-32 3,-49 -12,-28 -43,-41 -73,-28 -30,13 -41,44 -29,73 7,17 21,28 38,31l-3 11c-19,-3 -36,-17 -45,-38 -15,-35 -1,-72 34,-88 36,-16 73,0 88,35 9,21 8,43 -3,59z"/>
  <path class="fil1" d="M577 2310l-43 29 21 32c12,18 26,23 40,13 14,-9 15,-24 3,-42l-21 -32zm30 26c16,24 14,45 -5,58 -19,13 -40,6 -55,-17l-3 -4 -21 73 -8 -12 21 -73 -11 -17 -48 32 -6 -9 108 -73 28 41z"/>
  <polygon class="fil1" points="674,2620 612,2554 707,2465 768,2529 760,2537 707,2480 671,2514 724,2569 716,2576 664,2521 628,2555 682,2612 "/>
  <path class="fil1" d="M825 2686l47 35 18 -74 -66 39zm44 94l-10 -7 10 -40 -54 -40 -35 21 -10 -7 122 -72 11 8 -34 137z"/>
  <polygon class="fil1" points="1107,2778 1065,2756 1010,2862 1000,2857 1055,2751 1013,2729 1018,2719 1112,2768 "/>
  <polygon class="fil1" points="1259,2962 1174,2934 1214,2810 1299,2838 1296,2848 1222,2824 1207,2870 1279,2894 1275,2904 1203,2881 1188,2928 1263,2952 "/>
  <path class="fil1" d="M1561 2964l59 2 -27 -71 -32 69zm89 52l-12 0 -14 -39 -68 -3 -17 37 -12 0 60 -128 14 1 50 132z"/>
  <path class="fil1" d="M2009 2858l-8 8c-12,-11 -30,-15 -47,-11 -30,7 -48,35 -40,67 8,32 37,48 67,41 18,-4 31,-16 36,-32l11 4c-7,18 -23,33 -44,38 -37,9 -71,-11 -81,-49 -9,-38 12,-72 49,-81 22,-5 44,0 58,13z"/>
  <polygon class="fil1" points="2151,2842 2227,2807 2202,2753 2212,2749 2267,2867 2257,2872 2231,2817 2155,2852 2180,2907 2170,2912 2116,2793 2126,2789 "/>
  <path class="fil1" d="M2383 2741l48 -34 -65 -41 17 74zm103 -13l-10 7 -35 -22 -55 39 9 40 -10 7 -30 -138 11 -8 120 75z"/>
  <polygon class="fil1" points="2664,2564 2657,2572 2518,2555 2597,2633 2589,2641 2496,2549 2503,2542 2642,2559 2563,2481 2571,2473 "/>
  <path class="fil1" d="M2730 2294l2 11c-16,2 -30,10 -39,24 -17,26 -12,58 16,77 28,18 60,11 76,-15 16,-25 11,-51 -13,-69l-24 37 -9 -6 31 -47c1,1 2,1 3,2 32,21 42,57 21,89 -19,29 -58,41 -92,18 -33,-22 -40,-61 -19,-92 11,-17 28,-27 46,-30z"/>
  <polygon class="fil1" points="2930,2135 2894,2218 2774,2166 2809,2084 2819,2088 2789,2160 2833,2179 2863,2110 2873,2114 2843,2183 2889,2203 2920,2131 "/>
  <polygon class="fil0" points="1550,1992 1505,1992 1272,1329 1040,1992 995,1992 744,1280 784,1280 1017,1949 1252,1280 1294,1280 1528,1949 1761,1280 1800,1280 "/>
  <path class="fil0" d="M2030 1735l360 0 -180 -417 -180 417zm511 256l-41 0 -95 -220 -391 0 -95 220 -40 0 307 -712 46 0 307 712z"/>
  <path class="fil0" d="M1953 1316c-43,0 -78,35 -78,78 0,43 35,78 78,78 43,0 78,-35 78,-78 0,-43 -35,-78 -78,-78zm0 192c-63,0 -114,-51 -114,-114 0,-63 51,-114 114,-114 63,0 114,51 114,114 0,63 -51,114 -114,114z"/>
 </g>
</svg>
